# xmcd CD database file
#
# Track frame offsets:
#	150
#	14047
#	28642
#	34067
#	38487
#	47760
#	52837
#	63390
#	81177
#	91337
#	98340
#	108570
#	117775
#	131022
#	138892
#	146315
#	161082
#	166697
#	167380
#	168122
#	179005
#	197072
#	206750
#	212905
#	222912
#	231217
#	240605
#	251912
#	267467
#
# Disc length: 3778 seconds
#
# Revision: 4
# Processed by: cddbd v1.5PL3 Copyright (c) Steve Scherf et al.
# Submitted via: CDex 1.50beta10
#
DISCID=920ec01d
DTITLE=林克洋・並木晃一・伊藤ヨシユキ - エターナルメロディ
DYEAR=1996
DGENRE=Game
TTITLE0=水中飛行
TTITLE1=GLOW OF LOVE
TTITLE2=楊雲
TTITLE3=メイヤー・ステイシア
TTITLE4=カレン・レカキス
TTITLE5=アルザ・ロウ
TTITLE6=紅 若葉
TTITLE7=リラ・マイム 〜 必要ってことね
TTITLE8=ウェンディ・ミゼリア
TTITLE9=キャラット・シールズ
TTITLE10=ティナ・ハーヴェル
TTITLE11=カイル・イシュバーン
TTITLE12=レミット・マリエーナ 〜 時計の目の秘密
TTITLE13=Battle
TTITLE14=Town
TTITLE15=告白
TTITLE16=Schedule
TTITLE17=ADV Win
TTITLE18=ADV Lose
TTITLE19=Dungeon
TTITLE20=Scenario1 〜 願いの薬
TTITLE21=Scenario2
TTITLE22=Scenario3
TTITLE23=Scenario4
TTITLE24=Scenario5
TTITLE25=MAIN BGM
TTITLE26=Ending
TTITLE27=どうしよう?(SEGASATURN エンディング・テーマ)
TTITLE28=夢見る力(PLAYSTATION エンディング・テーマ)
EXTD=YEAR: 1996
EXTT0=
EXTT1=
EXTT2=
EXTT3=
EXTT4=
EXTT5=
EXTT6=
EXTT7=
EXTT8=
EXTT9=
EXTT10=
EXTT11=
EXTT12=
EXTT13=
EXTT14=
EXTT15=
EXTT16=
EXTT17=
EXTT18=
EXTT19=
EXTT20=
EXTT21=
EXTT22=
EXTT23=
EXTT24=
EXTT25=
EXTT26=
EXTT27=
EXTT28=
PLAYORDER=
